<svg viewBox="0 0 1058 785" fill="none" xmlns="http://www.w3.org/2000/svg">
	<style>
		* {
			margin: 0;
			padding: 0;
			box-sizing: border-box;
		}

		svg {
			text-align: center;
		}


		#right-wheel,
		#left-wheel {

			animation: wheel 2s infinite linear;
			transform-origin: center;
			transform-box: fill-box;
		}

		@keyframes wheel {
			from {
				transform: rotateZ(0deg)
			}

			to {
				transform: rotateZ(360deg)
			}

		}



		.text {
			animation: 5.5s opacity infinite;
		}

		@keyframes opacity {
			15% {
				opacity: 0
			}

			35% {
				opacity: 1
			}

			65% {
				opacity: 1
			}

			85% {
				opacity: 0
			}
		}

		#S {
			animation-delay: 0.5s
		}

		#H {
			animation-delay: 1.0s
		}

		#A {
			animation-delay: 1.5s
		}

		#M_2 {
			animation-delay: 2.0s
		}

		#I {
			animation-delay: 2.5s
		}

		#M {
			animation-delay: 3.0s
		}
	</style>

	<g id="undraw_Ride_a_bicycle_2yok 1" clip-path="url(#clip0)">
		<path id="Vector" opacity="0.7"
			d="M223.338 86.6288C217.276 92.7534 214.325 101.873 211.177 110.412C185.819 179.233 134.016 231.723 77.2182 267.411C53.1652 282.528 23.6883 303.054 25.7995 334.285C26.9403 351.058 37.4518 364.288 44.8575 378.54C60.4002 408.386 62.7796 447.243 51.0663 480.205C37.7437 517.709 7.02866 551.037 11.9809 590.64C15.0386 615.019 31.2729 633.651 47.0381 649.83C71.6346 675.056 97.2123 698.919 123.771 721.418C141.575 736.498 160.626 751.33 182.639 755.046C202.022 758.32 206 771 233 771C260 771 263 771 297 771C321 771 330 769.954 362 763C382 749.8 394 740.406 409.776 741.846C461.561 746.57 516.551 731.155 576.341 709.447C668.056 676.143 743.006 595.469 833.277 556.75C872.09 540.098 891.026 525.576 927.627 502.908C948.262 489.982 979.841 467.983 994.822 448.789C1024.36 411.207 1038.36 368.472 1038.86 318.25C1039.37 268.029 1011.76 225.665 978.742 194.275C943.398 160.675 918.859 147.332 877.169 125.293C834.119 102.528 797.234 66.7889 754.737 42.6981C720.346 23.2497 682.036 11.7476 642.62 9.03593C603.203 6.32424 563.679 12.4717 526.949 27.0273C476.483 47.0248 422.393 99.4874 368.272 98.9077C329.718 98.4028 256.543 53.0869 223.338 86.6288Z"
			fill="url(#paint0_linear)" />
		<g id="right-wheel">
			<path id="Vector_2"
				d="M746.915 720.977L740.655 623.077L740.525 622.867L734.205 625.067L705.115 709.877L658.865 677.077L732.555 623.667L732.625 623.457L733.045 623.307L737.795 619.857L660.555 576.547L641.625 597.347L644.625 616.847L733.425 618.427V620.427L642.945 618.807L639.545 596.697L665.435 568.247L704.155 523.077L704.845 524.947L713.045 515.947L743.585 521.417V520.207L745.585 520.267V521.777L790.945 529.897L748.615 614.547L742.445 619.017V619.517V620.077L840.255 585.997L828.645 677.207L745.645 624.337L742.725 622.697L791.665 701.587L746.915 720.977ZM742.915 626.637L748.765 718.017L788.815 700.637L742.915 626.637ZM662.345 677.077L704.135 706.707L731.475 626.967L662.345 677.077ZM744.665 621.417L746.755 622.587L827.105 673.787L837.905 588.917L744.665 621.417ZM737.565 614.217L740.075 618.267L740.515 617.947L743.515 523.417L713.775 518.077L705.615 527.077L737.565 614.217ZM662.175 575.167L737.015 617.167L735.715 615.037L704.135 528.767L666.935 569.647L662.175 575.167ZM745.545 523.777L742.545 616.467L747.065 613.187L787.975 531.367L745.545 523.777Z"
				fill="#535461" />
			<path id="Vector_3"
				d="M741.825 502.197C731.212 502.185 720.646 503.611 710.415 506.437C705.139 507.892 699.972 509.72 694.955 511.907C668.225 523.494 646.742 544.583 634.662 571.095C622.582 597.606 620.764 627.656 629.56 655.43C638.355 683.204 657.139 706.73 682.277 721.455C707.416 736.181 737.122 741.06 765.65 735.148C794.177 729.237 819.499 712.956 836.716 689.454C853.933 665.951 861.822 636.899 858.857 607.917C855.891 578.934 842.283 552.081 820.663 532.553C799.043 513.025 770.949 502.208 741.815 502.197H741.825ZM741.425 708.287C721.144 708.279 701.476 701.333 685.688 688.604C669.899 675.875 658.94 658.127 654.63 638.31C650.32 618.492 652.919 597.796 661.996 579.659C671.072 561.523 686.079 547.037 704.525 538.607C709.217 536.459 714.089 534.729 719.085 533.437C731.297 530.267 744.045 529.734 756.479 531.874C768.913 534.014 780.749 538.778 791.198 545.848C801.648 552.918 810.472 562.133 817.083 572.879C823.695 583.625 827.941 595.656 829.541 608.171C831.141 620.686 830.057 633.399 826.361 645.462C822.665 657.526 816.443 668.664 808.108 678.135C799.772 687.607 789.515 695.194 778.019 700.393C766.523 705.592 754.052 708.283 741.435 708.287H741.425Z"
				fill="#535461" />
		</g>
		<g id="left-wheel">
			<path id="Vector_4"
				d="M320.725 720.577L314.455 622.637L314.325 622.427L308.005 624.627L278.925 709.477L232.675 676.687L306.345 623.277L306.415 623.067L306.835 622.917L311.585 619.467L234.345 576.157L215.425 596.957L218.425 616.457L307.245 618.077V620.077L216.765 618.457L213.345 596.317L239.245 567.857L277.995 522.657L278.685 524.527L286.885 515.527L317.345 520.987V519.777L319.345 519.837V521.347L364.705 529.467L322.415 614.077L316.245 618.547V619.047V619.607L414.045 585.527L402.435 676.737L319.435 623.867L316.515 622.227L365.455 701.107L320.725 720.577ZM316.725 626.237L322.575 717.617L362.625 700.237L316.725 626.237ZM236.145 676.667L277.935 706.297L305.275 626.557L236.145 676.667ZM318.465 621.007L320.555 622.177L400.905 673.377L411.705 588.507L318.465 621.007ZM311.365 613.807L313.875 617.857L314.315 617.537L317.315 523.007L287.575 517.687L279.415 526.687L311.365 613.807ZM235.945 574.747L310.785 616.747L309.485 614.617L277.905 528.347L240.715 569.217L235.945 574.747ZM319.345 523.357L316.345 616.077L320.865 612.797L361.775 530.977L319.345 523.357Z"
				fill="#535461" />
			<path id="Vector_5"
				d="M430.415 593.537C426.405 575.717 418.285 559.082 406.705 544.957C402.406 539.708 397.666 534.836 392.535 530.397C372.809 513.365 347.986 503.366 321.962 501.968C295.938 500.57 270.187 507.852 248.749 522.671C227.311 537.491 211.401 559.009 203.515 583.849C195.629 608.688 196.214 635.443 205.178 659.915C214.142 684.386 230.978 705.188 253.042 719.057C275.107 732.925 301.152 739.075 327.09 736.541C353.028 734.007 377.39 722.932 396.353 705.055C415.317 687.178 427.807 663.51 431.865 637.767C432.809 631.706 433.284 625.581 433.285 619.447C433.292 610.73 432.329 602.04 430.415 593.537ZM315.225 707.887C296.993 707.868 279.209 702.234 264.292 691.751C249.374 681.269 238.047 666.446 231.851 649.299C225.655 632.152 224.89 613.513 229.66 595.916C234.43 578.319 244.505 562.618 258.513 550.948C272.521 539.278 289.783 532.206 307.953 530.693C326.122 529.18 344.316 533.299 360.062 542.491C375.807 551.683 388.34 565.501 395.956 582.066C403.571 598.632 405.9 617.141 402.625 635.077C398.875 655.52 388.076 674.001 372.107 687.304C356.137 700.608 336.01 707.891 315.225 707.887Z"
				fill="#535461" />
		</g>
		<g id="man-bike">
			<path id="Vector_6" d="M452.495 557.89L409.788 515.746L396.442 529.27L439.149 571.414L452.495 557.89Z"
				fill="#808083" />
			<path id="Vector_7"
				d="M419.975 495.577C419.975 495.577 444.765 482.497 454.345 474.077C460.112 469.031 466.313 464.503 472.875 460.547L503.975 441.617L568.975 436.617L571.975 447.617C571.975 447.617 576.975 463.617 526.975 477.617C476.975 491.617 451.975 513.617 451.975 513.617C451.975 513.617 419.975 524.577 419.975 495.577Z"
				fill="#DB8B8B" />
			<path id="Vector_8" opacity="0.1"
				d="M454.625 511.447C452.855 512.797 451.975 513.577 451.975 513.577C451.975 513.577 419.975 524.577 419.975 495.577C419.975 495.577 421.525 494.757 423.975 493.387C426.45 497.417 429.918 500.746 434.046 503.055C438.174 505.365 442.825 506.577 447.555 506.577H450.945L454.625 511.447Z"
				fill="black" />
			<path id="Vector_9" opacity="0.05"
				d="M571.035 453.137C568.255 459.027 558.665 468.707 526.975 477.577C486.365 488.947 462.245 505.577 454.625 511.447C452.855 512.797 451.975 513.577 451.975 513.577C451.975 513.577 419.975 524.577 419.975 495.577C419.975 495.577 421.525 494.757 423.975 493.387C431.405 489.317 447.135 480.387 454.315 474.037C460.081 468.989 466.282 464.462 472.845 460.507L503.945 441.577L515.525 440.687L568.945 436.577L571.945 447.577C571.945 447.577 572.645 449.727 571.035 453.137Z"
				fill="black" />
			<path id="Vector_10"
				d="M420.475 489.077L393.975 506.577L471.575 571.577C471.575 571.577 482.975 564.577 476.975 556.577C476.975 556.577 456.975 539.577 455.975 515.577L449.975 507.577H446.585C440.853 507.577 435.262 505.798 430.585 502.484C425.907 499.17 422.375 494.485 420.475 489.077Z"
				fill="#ABB1D1" />
			<path id="Vector_11" opacity="0.1"
				d="M571.035 453.137C555.035 445.407 515.975 444.577 515.975 444.577L515.555 440.687L568.975 436.577L571.975 447.577C571.975 447.577 572.645 449.727 571.035 453.137Z"
				fill="black" />
			<path id="Vector_12"
				d="M515.975 442.577C515.975 442.577 562.975 443.577 574.975 453.577L568.975 332.577H503.975L515.975 442.577Z"
				fill="#ABB1D1" />
			<path id="Vector_13" opacity="0.05"
				d="M515.975 442.077C515.975 442.077 562.975 443.077 574.975 453.077L568.975 332.077H503.975L515.975 442.077Z"
				fill="black" />
			<path id="Vector_14"
				d="M553.735 368.537C553.735 368.537 671.385 364.537 673.785 379.747C676.185 394.957 556.135 388.547 556.135 388.547C556.135 388.547 546.535 378.937 553.735 368.537Z"
				fill="#535461" />
			<path id="Vector_15" opacity="0.05"
				d="M553.735 368.537C553.735 368.537 671.385 364.537 673.785 379.747C676.185 394.957 556.135 388.547 556.135 388.547C556.135 388.547 546.535 378.937 553.735 368.537Z"
				fill="black" />
			<path id="Vector_16" d="M458.495 429.367H437.685V610.247H458.495V429.367Z" fill="#808083" />
			<path id="Vector_17" opacity="0.1"
				d="M458.495 429.357V443.287C451.575 444.187 444.495 444.757 437.685 444.977V429.357H458.495Z"
				fill="black" />
			<path id="Vector_18"
				d="M456.935 414.367C454.015 414.141 451.111 413.75 448.235 413.197C436.955 411.037 408.515 406.507 400.865 414.197C391.265 423.797 394.465 440.607 420.075 443.007C445.685 445.407 489.705 439.007 498.515 429.397C498.515 429.357 482.585 416.337 456.935 414.367Z"
				fill="#535461" />
			<path id="Vector_19" d="M452.895 478.987L671.395 410.957L678.595 427.767L454.495 504.597L452.895 478.987Z"
				fill="#808083" />
			<path id="Vector_20" d="M517.725 586.237L675.395 430.967L684.195 443.767L533.725 600.637L517.725 586.237Z"
				fill="#808083" />
			<path id="Vector_21" opacity="0.1"
				d="M719.075 533.437C714.079 534.729 709.207 536.459 704.515 538.607L694.955 511.897C699.972 509.71 705.139 507.882 710.415 506.427L719.075 533.437Z"
				fill="black" />
			<path id="Vector_22"
				d="M745.825 611.847L734.625 618.247L656.485 399.917L652.985 390.147L671.395 379.737L676.005 394.117L745.825 611.847Z"
				fill="#808083" />
			<path id="Vector_23" opacity="0.1"
				d="M676.005 394.117L656.485 399.917L652.985 390.147L671.395 379.737L676.005 394.117Z" fill="black" />
			<path id="Vector_24"
				d="M556.935 410.957L666.585 373.337C666.585 373.337 685.795 375.737 678.585 391.747L568.145 424.557C568.145 424.557 551.345 426.157 556.935 410.957Z"
				fill="#535461" />
			<path id="Vector_25" opacity="0.1"
				d="M433.285 619.447C433.284 625.581 432.809 631.706 431.865 637.767C422.265 637.077 412.345 636.077 402.625 635.077C404.785 623.186 404.516 610.981 401.835 599.197C411.305 597.197 420.975 595.287 430.415 593.557C432.328 602.054 433.29 610.737 433.285 619.447Z"
				fill="black" />
			<path id="Vector_26" opacity="0.1"
				d="M458.495 588.967V610.237H437.685V592.237C444.885 590.987 451.885 589.877 458.495 588.967Z"
				fill="black" />
			<path id="Vector_27"
				d="M324.035 619.077C324.035 619.077 492.115 575.077 505.715 591.867C519.315 608.657 533.725 631.077 491.345 639.077C448.965 647.077 320.865 625.467 320.865 625.467L324.035 619.077Z"
				fill="#808083" />
			<path id="Vector_28" opacity="0.1"
				d="M406.705 544.957L385.345 564.507C381.563 559.651 377.286 555.2 372.585 551.227L392.525 530.397C397.659 534.836 402.403 539.707 406.705 544.957Z"
				fill="black" />
			<path id="Vector_29" d="M318.435 610.247L444.085 478.987L448.095 509.397L324.835 622.247L318.435 610.247Z"
				fill="#808083" />
			<path id="Vector_30" opacity="0.1"
				d="M513.715 631.857C527.859 631.857 539.325 620.391 539.325 606.247C539.325 592.103 527.859 580.637 513.715 580.637C499.571 580.637 488.105 592.103 488.105 606.247C488.105 620.391 499.571 631.857 513.715 631.857Z"
				fill="black" />
			<path id="Vector_31"
				d="M515.325 631.857C529.469 631.857 540.935 620.391 540.935 606.247C540.935 592.103 529.469 580.637 515.325 580.637C501.181 580.637 489.715 592.103 489.715 606.247C489.715 620.391 501.181 631.857 515.325 631.857Z"
				fill="#535461" />
			<path id="Vector_32"
				d="M508.487 604.323L508.479 604.329C505.472 606.578 504.857 610.839 507.106 613.847L527.432 641.027C529.681 644.035 533.943 644.65 536.95 642.4L536.958 642.394C539.966 640.145 540.581 635.884 538.332 632.876L518.005 605.696C515.756 602.688 511.495 602.074 508.487 604.323Z"
				fill="#6C63FF" />
			<path id="Vector_33"
				d="M630.975 250.577L628.595 280.687C628.321 284.501 628.372 288.331 628.745 292.137C629.055 295.507 628.745 301.407 625.445 310.407C621.208 321.904 619.018 334.054 618.975 346.307V380.577L595.975 376.577C595.975 376.577 596.975 328.577 592.975 320.577C588.975 312.577 595.975 241.577 595.975 241.577L630.975 250.577Z"
				fill="#DB8B8B" />
			<path id="Vector_34" opacity="0.05"
				d="M629.795 265.497L628.595 280.687C628.325 284.498 628.378 288.325 628.755 292.127C629.065 295.497 628.755 301.397 625.455 310.407C621.218 321.904 619.028 334.054 618.985 346.307V380.577L595.985 376.577C595.985 376.577 596.985 328.577 592.985 320.577C590.155 314.907 592.835 277.637 594.645 256.367C595.395 247.617 595.985 241.577 595.985 241.577L630.985 250.577L629.795 265.497Z"
				fill="black" />
			<path id="Vector_35"
				d="M516.995 480.577L508.345 529.777C507.254 536.346 505.581 542.804 503.345 549.077C498.275 562.937 501.515 582.367 503.975 592.967C505.065 597.647 505.975 600.607 505.975 600.607L479.975 614.607L471.975 608.607V604.607L470.975 515.607C464.975 501.607 466.975 480.607 470.975 472.607C472.113 469.978 472.912 467.216 473.355 464.387C475.355 453.667 475.975 438.607 475.975 438.607C475.975 438.607 491.975 411.607 510.975 429.607C517.975 436.237 520.635 444.907 521.195 453.207C522.175 467.417 516.995 480.577 516.995 480.577Z"
				fill="#DB8B8B" />
			<path id="Vector_36" opacity="0.1"
				d="M521.195 453.177C507.325 461.417 483.195 463.747 473.355 464.357C475.355 453.637 475.975 438.577 475.975 438.577C475.975 438.577 491.975 411.577 510.975 429.577C517.975 436.207 520.635 444.877 521.195 453.177Z"
				fill="black" />
			<path id="Vector_37"
				d="M554.975 428.577C544.341 434.24 534.292 440.939 524.975 448.577C508.975 461.577 468.975 462.577 468.975 462.577V447.577C469.975 429.577 452.975 409.577 429.975 353.577C415.285 317.817 419.355 297.577 424.215 287.577C426.975 281.927 429.975 279.577 429.975 279.577L554.975 303.577L559.445 316.977L568.975 345.577C568.975 345.577 533.975 347.577 527.975 350.577C521.975 353.577 525.975 380.577 525.975 380.577C519.975 408.577 554.975 428.577 554.975 428.577Z"
				fill="#ABB1D1" />
			<path id="Vector_38" opacity="0.1"
				d="M630.975 250.577L629.795 265.497C612.395 270.497 599.975 254.577 599.975 254.577C598.16 255.063 596.377 255.661 594.635 256.367C595.385 247.617 595.975 241.577 595.975 241.577L630.975 250.577Z"
				fill="black" />
			<path id="Vector_39" opacity="0.1"
				d="M559.445 316.977C558.975 321.647 558.975 324.577 558.975 324.577C558.975 324.577 535.975 343.577 496.975 314.577C457.975 285.577 422.975 293.577 422.975 293.577C422.975 293.577 423.385 291.257 424.215 287.577C426.975 281.927 429.975 279.577 429.975 279.577L554.975 303.577L559.445 316.977Z"
				fill="black" />
			<path id="Vector_40"
				d="M645.975 207.009C643.365 227.46 642.495 253.238 642.495 253.238C619.495 271.327 601.495 248.213 601.495 248.213C579.775 254.072 569.565 273.177 564.755 289.849C562.179 298.867 560.748 308.177 560.495 317.556C560.495 317.556 554.415 322.581 543.215 323.586C532.625 324.48 517.445 321.707 498.495 307.506C459.495 278.362 424.495 286.402 424.495 286.402C424.495 286.402 431.495 246.203 447.495 234.144C463.495 222.084 475.495 207.009 495.495 160.781C515.495 114.552 556.495 125.607 556.495 125.607C556.495 125.607 558.495 116.562 595.495 125.607C604.507 127.98 612.849 132.421 619.865 138.581C639.655 155.303 649.255 181.242 645.975 207.009Z"
				fill="white" />
			<path id="Vector_41"
				d="M607.345 153.077C607.295 154.407 607.185 155.887 607.005 157.537C605.005 175.537 603.005 173.537 581.005 177.537C567.325 180.027 560.215 168.597 556.795 159.597C555.557 156.336 554.623 152.969 554.005 149.537L602.005 141.537C602.005 141.537 607.755 139.927 607.345 153.077Z"
				fill="#DB8B8B" />
			<path id="Vector_42" opacity="0.05"
				d="M563.235 294.007C560.659 302.98 559.228 312.244 558.975 321.577C558.975 321.577 552.895 326.577 541.695 327.577C541.38 326.94 541.138 326.269 540.975 325.577C538.975 316.577 523.975 300.577 523.975 300.577C513.975 291.577 511.975 275.577 511.975 275.577L495.475 227.077L489.975 222.577C489.975 222.577 512.975 204.577 532.975 219.577C552.975 234.577 546.975 266.577 546.975 266.577L550.975 277.577C555.125 281.077 559.345 287.247 563.235 294.007Z"
				fill="black" />
			<path id="Vector_43"
				d="M492.975 221.577L514.975 274.577C514.975 274.577 516.975 290.577 526.975 299.577C526.975 299.577 541.975 315.577 543.975 324.577C545.975 333.577 573.975 357.577 573.975 357.577C573.975 357.577 599.975 381.577 601.975 390.577C601.975 390.577 625.975 397.577 622.975 411.577C622.975 411.577 640.975 393.577 622.975 376.577C604.975 359.577 580.975 324.577 580.975 324.577C580.975 324.577 566.975 287.577 553.975 276.577L549.975 265.577C549.975 265.577 555.975 233.577 535.975 218.577C515.975 203.577 492.975 221.577 492.975 221.577Z"
				fill="#DB8B8B" />
			<path id="Vector_44" opacity="0.1"
				d="M505.975 600.577L479.975 614.577L471.975 608.577V604.577C480.959 603.939 489.688 601.305 497.525 596.867C499.925 595.507 502.185 594.167 503.995 592.987C505.045 597.617 505.975 600.577 505.975 600.577Z"
				fill="black" />
			<path id="Vector_45" opacity="0.1"
				d="M535.975 179.577L549.975 234.577C549.975 234.577 506.975 241.577 497.975 234.577C488.975 227.577 471.975 225.577 471.975 225.577C471.975 225.577 489.975 173.577 499.975 167.577C509.975 161.577 535.975 179.577 535.975 179.577Z"
				fill="black" />
			<path id="Vector_46"
				d="M535.975 177.577L549.975 232.577C549.975 232.577 506.975 239.577 497.975 232.577C488.975 225.577 471.975 223.577 471.975 223.577C471.975 223.577 489.975 171.577 499.975 165.577C509.975 159.577 535.975 177.577 535.975 177.577Z"
				fill="white" />
			<path id="Vector_47" opacity="0.1"
				d="M607.345 152.077C604.544 155.943 600.982 159.195 596.878 161.634C592.773 164.072 588.213 165.645 583.479 166.256C578.744 166.866 573.934 166.502 569.345 165.185C564.756 163.868 560.485 161.626 556.795 158.597C555.557 155.336 554.623 151.969 554.005 148.537L602.005 140.537C602.005 140.537 607.755 138.927 607.345 152.077Z"
				fill="black" />
			<path id="Vector_48"
				d="M613.975 130.577C613.975 139.859 610.288 148.762 603.724 155.325C597.16 161.889 588.258 165.577 578.975 165.577C569.693 165.577 560.79 161.889 554.226 155.325C547.663 148.762 543.975 139.859 543.975 130.577C543.975 129.997 543.975 129.417 543.975 128.837C544.206 119.554 548.115 110.743 554.842 104.343C561.569 97.9422 570.563 94.476 579.845 94.7067C589.128 94.9375 597.938 98.8462 604.339 105.573C610.74 112.3 614.206 121.294 613.975 130.577Z"
				fill="#DB8B8B" />
			<path id="Vector_49" opacity="0.1"
				d="M613.975 130.577C613.978 133.802 613.534 137.013 612.655 140.117C609.95 140.706 607.128 140.448 604.575 139.377C600.835 137.907 597.625 135.377 594.035 133.557C583.925 128.437 571.895 129.447 560.695 131.137C555.135 131.977 548.825 132.757 544.455 129.217C544.305 129.098 544.161 128.971 544.025 128.837C544.256 119.554 548.165 110.743 554.892 104.343C561.619 97.9422 570.613 94.476 579.895 94.7067C589.178 94.9375 597.988 98.8462 604.389 105.573C610.79 112.3 614.256 121.294 614.025 130.577H613.975Z"
				fill="black" />
			<path id="Vector_50" opacity="0.05"
				d="M450.475 238.077C450.475 238.077 476.475 245.077 484.475 263.077C492.475 281.077 514.115 284.367 514.115 284.367"
				fill="black" />
			<path id="Vector_51" d="M548.475 634.077H488.475V653.077H548.475V634.077Z" fill="#808083" />
			<path id="Vector_52"
				d="M497.485 598.817C502.855 595.817 507.565 592.817 507.975 591.577C507.975 591.577 521.525 605.877 533.595 610.317C537.654 611.816 541.539 613.747 545.185 616.077C549.965 619.077 556.785 622.607 562.975 622.607C562.975 622.607 576.975 634.607 549.975 636.607C522.975 638.607 459.975 631.607 459.975 631.607L463.975 606.607C475.662 607.292 487.299 604.587 497.485 598.817Z"
				fill="#ABB1D1" />
			<path id="Vector_53"
				d="M741.425 632.257C748.5 632.257 754.235 626.521 754.235 619.447C754.235 612.372 748.5 606.637 741.425 606.637C734.35 606.637 728.615 612.372 728.615 619.447C728.615 626.521 734.35 632.257 741.425 632.257Z"
				fill="#535461" />
			<path id="Vector_54"
				d="M315.225 631.857C322.3 631.857 328.035 626.121 328.035 619.047C328.035 611.972 322.3 606.237 315.225 606.237C308.15 606.237 302.415 611.972 302.415 619.047C302.415 626.121 308.15 631.857 315.225 631.857Z"
				fill="#535461" />
			<path id="Vector_55" opacity="0.1"
				d="M316.835 631.857C323.91 631.857 329.645 626.121 329.645 619.047C329.645 611.972 323.91 606.237 316.835 606.237C309.76 606.237 304.025 611.972 304.025 619.047C304.025 626.121 309.76 631.857 316.835 631.857Z"
				fill="black" />
			<path id="Vector_56" opacity="0.1"
				d="M740.625 630.657C747.7 630.657 753.435 624.922 753.435 617.847C753.435 610.772 747.7 605.037 740.625 605.037C733.55 605.037 727.815 610.772 727.815 617.847C727.815 624.922 733.55 630.657 740.625 630.657Z"
				fill="black" />
		</g>
		<g id="text">

			<path id="S" class="text" opacity="0.5"
				d="M129.293 490.207C127.015 484.879 125.897 479.446 125.936 473.906C125.975 468.367 126.989 463.119 128.977 458.162C130.999 453.121 133.91 448.584 137.71 444.553C141.509 440.522 146.073 437.367 151.401 435.09L210.487 409.834L221.503 435.605L162.417 460.861C160.621 461.629 159.085 462.675 157.81 463.999C156.535 465.323 155.555 466.839 154.87 468.548C154.218 470.172 153.896 471.902 153.903 473.74C153.91 475.578 154.297 477.395 155.065 479.191C155.832 480.987 156.891 482.553 158.24 483.887C159.564 485.162 161.051 486.155 162.7 486.867C164.383 487.492 166.144 487.802 167.982 487.795C169.82 487.788 171.637 487.401 173.433 486.633L199.204 475.617C204.532 473.34 209.966 472.221 215.506 472.26C221.079 472.214 226.357 473.215 231.339 475.263C236.355 477.226 240.862 480.149 244.859 484.034C248.89 487.834 252.044 492.397 254.322 497.725C256.599 503.053 257.718 508.487 257.679 514.026C257.699 519.54 256.698 524.818 254.676 529.86C252.688 534.816 249.764 539.323 245.905 543.379C242.106 547.411 237.542 550.565 232.214 552.843L175.013 577.293L163.997 551.521L221.198 527.071C222.994 526.303 224.529 525.257 225.804 523.934C227.079 522.61 228.042 521.136 228.694 519.512C229.379 517.803 229.719 516.03 229.712 514.192C229.705 512.354 229.318 510.537 228.55 508.741C227.782 506.945 226.737 505.41 225.413 504.135C224.089 502.86 222.585 501.909 220.902 501.284C219.253 500.573 217.509 500.22 215.671 500.227C213.833 500.234 212.016 500.621 210.22 501.389L184.449 512.405C179.121 514.682 173.687 515.801 168.148 515.762C162.608 515.722 157.33 514.721 152.314 512.759C147.332 510.711 142.826 507.787 138.794 503.988C134.737 500.129 131.57 495.535 129.293 490.207Z"
				fill="#003146" fill-opacity="0.51" />

			<path id="H" class="text" opacity="0.5"
				d="M315.635 518.012L289.863 529.028L234.822 400.259L260.593 389.243L282.625 440.786L334.079 418.793L312.047 367.25L337.819 356.234L392.86 485.002L367.088 496.018L345.095 444.565L293.641 466.558L315.635 518.012Z"
				fill="#003146" fill-opacity="0.51" />
			<path id="A" class="text" opacity="0.5"
				d="M470.76 391.818L459.744 366.047C458.235 362.515 456.126 359.486 453.419 356.962C450.745 354.352 447.742 352.379 444.41 351.042C441.077 349.705 437.543 349.056 433.807 349.096C430.106 349.049 426.489 349.781 422.957 351.291C419.425 352.801 416.367 354.922 413.782 357.655C411.232 360.303 409.289 363.293 407.952 366.626C406.615 369.958 405.937 373.505 405.916 377.267C405.93 380.942 406.691 384.546 408.201 388.078L419.217 413.85L470.76 391.818ZM518.526 432.256L492.754 443.272L481.738 417.5L430.195 439.532L441.21 465.304L415.529 476.281L382.519 399.056C379.474 391.932 377.968 384.681 378.001 377.304C378.008 369.867 379.318 362.828 381.932 356.189C384.605 349.523 388.479 343.513 393.554 338.158C398.688 332.777 404.817 328.564 411.941 325.519C419.065 322.474 426.315 320.968 433.693 321.001C441.13 321.008 448.181 322.348 454.847 325.021C461.512 327.695 467.535 331.599 472.916 336.733C478.271 341.808 482.471 347.907 485.516 355.031L518.526 432.256Z"
				fill="#003146" fill-opacity="0.51" />
			<path id="M_2" class="text" opacity="0.5"
				d="M668.43 366.418L642.748 377.396L603.444 285.444C602.676 283.648 601.6 282.125 600.217 280.876C598.893 279.601 597.389 278.651 595.706 278.025C594.057 277.314 592.313 276.962 590.475 276.968C588.637 276.975 586.82 277.362 585.024 278.13C583.228 278.898 581.693 279.944 580.418 281.267C579.143 282.591 578.162 284.108 577.477 285.817C576.826 287.44 576.504 289.171 576.51 291.009C576.517 292.847 576.904 294.664 577.672 296.46L616.976 388.412L591.205 399.428L551.9 307.476C551.133 305.68 550.087 304.144 548.763 302.869C547.439 301.594 545.936 300.644 544.252 300.018C542.603 299.307 540.859 298.955 539.021 298.962C537.183 298.969 535.366 299.356 533.571 300.124C531.775 300.891 530.239 301.937 528.964 303.261C527.689 304.585 526.709 306.101 526.023 307.81C525.372 309.434 525.05 311.165 525.057 313.003C525.063 314.84 525.451 316.657 526.218 318.453L565.523 410.405L539.751 421.421L500.447 329.469C498.169 324.141 497.02 318.72 497 313.207C497.014 307.607 498.015 302.329 500.003 297.373C502.025 292.331 504.949 287.825 508.774 283.853C512.633 279.796 517.227 276.629 522.555 274.352C527.344 272.305 532.324 271.203 537.496 271.045C542.643 270.828 547.673 271.58 552.587 273.303C554.737 268.561 557.639 264.418 561.293 260.874C564.981 257.244 569.219 254.406 574.008 252.358C579.336 250.081 584.77 248.962 590.309 249.002C595.883 248.956 601.161 249.956 606.143 252.004C611.159 253.967 615.665 256.89 619.663 260.775C623.694 264.575 626.848 269.138 629.126 274.466L668.43 366.418Z"
				fill="#003146" fill-opacity="0.51" />
			<path id="I" class="text" opacity="0.5"
				d="M716.386 346.286L690.615 357.302L635.573 228.533L661.345 217.517L716.386 346.286Z" fill="#003146"
				fill-opacity="0.51" />
			<path id="m" class="text" opacity="0.5"
				d="M870.43 280.418L844.748 291.396L805.444 199.444C804.676 197.648 803.6 196.125 802.217 194.876C800.893 193.601 799.389 192.651 797.706 192.025C796.057 191.314 794.313 190.962 792.475 190.968C790.637 190.975 788.82 191.362 787.024 192.13C785.228 192.898 783.693 193.944 782.418 195.267C781.143 196.591 780.163 198.108 779.477 199.817C778.826 201.44 778.504 203.171 778.51 205.009C778.517 206.847 778.904 208.664 779.672 210.46L818.976 302.412L793.205 313.428L753.9 221.476C753.133 219.68 752.087 218.144 750.763 216.869C749.439 215.594 747.936 214.644 746.252 214.018C744.603 213.307 742.859 212.955 741.021 212.962C739.183 212.969 737.367 213.356 735.571 214.124C733.775 214.891 732.239 215.937 730.964 217.261C729.689 218.585 728.709 220.101 728.023 221.81C727.372 223.434 727.05 225.165 727.057 227.003C727.064 228.84 727.451 230.657 728.218 232.453L767.523 324.405L741.751 335.421L702.447 243.469C700.169 238.141 699.02 232.72 699 227.207C699.014 221.607 700.015 216.329 702.003 211.373C704.025 206.331 706.949 201.825 710.774 197.853C714.633 193.796 719.227 190.629 724.555 188.352C729.344 186.305 734.324 185.203 739.496 185.045C744.643 184.828 749.673 185.58 754.587 187.303C756.737 182.561 759.639 178.418 763.293 174.874C766.981 171.244 771.219 168.405 776.008 166.358C781.336 164.081 786.77 162.962 792.309 163.002C797.883 162.956 803.161 163.956 808.143 166.004C813.159 167.967 817.666 170.89 821.663 174.775C825.694 178.575 828.848 183.138 831.126 188.466L870.43 280.418Z"
				fill="#003146" fill-opacity="0.51" />
		</g>
		<g id="hat">
			<path id="Vector_57"
				d="M518.655 108.927C520.785 115.607 531.015 115.817 536.265 120.737C538.995 123.297 540.265 127.077 543.265 129.357C547.435 132.537 553.455 131.837 558.765 131.077C569.455 129.557 580.935 128.647 590.575 133.257C593.995 134.887 597.065 137.167 600.635 138.497C604.205 139.827 608.635 139.987 611.535 137.627C613.855 135.737 614.705 132.627 616.805 130.547C618.435 128.907 620.705 127.987 622.565 126.547C626.645 123.467 628.405 118.447 629.565 113.647C631.965 103.767 632.655 93.1167 628.565 83.7467C624.475 74.3767 614.635 66.7467 603.895 67.2367C600.605 67.3867 597.395 68.2367 594.115 68.5967C585.565 69.4667 577.115 66.5967 568.535 66.1067C566.046 65.8039 563.522 66.1483 561.205 67.1067C559.459 68.0775 557.952 69.4273 556.795 71.0567C552.867 76.2021 550.177 82.1836 548.935 88.5367C547.935 93.3267 547.885 97.6667 542.015 98.4067C535.345 99.2867 514.145 94.7967 518.655 108.927Z"
				fill="#472727" />
		</g>
	</g>
	<defs>
		<linearGradient id="paint0_linear" x1="947.733" y1="140.236" x2="-6.96156" y2="687.761"
			gradientUnits="userSpaceOnUse">
			<stop stop-color="#2AE3D8" />
			<stop offset="1" stop-color="#3900DC" stop-opacity="0.56" />
		</linearGradient>
		<clipPath id="clip0">
			<rect width="1057.7" height="784.98" fill="white" />
		</clipPath>
	</defs>
</svg>